HIERARCHY
ROOT Hips
{
	OFFSET 0.00000 0.00000 0.00000
	CHANNELS 6 Xposition Yposition Zposition Zrotation Yrotation Xrotation 
	JOINT LHipJoint
	{
		OFFSET 0 0 0
		CHANNELS 3 Zrotation Yrotation Xrotation
		JOINT LeftUpLeg
		{
			OFFSET 1.62067 -1.77917 0.70989
			CHANNELS 3 Zrotation Yrotation Xrotation
			JOINT LeftLeg
			{
				OFFSET 2.34532 -6.44371 0.00000
				CHANNELS 3 Zrotation Yrotation Xrotation
				JOINT LeftFoot
				{
					OFFSET 2.74224 -7.53425 0.00000
					CHANNELS 3 Zrotation Yrotation Xrotation
					JOINT LeftToeBase
					{
						OFFSET 0.17032 -0.46794 2.08086
						CHANNELS 3 Zrotation Yrotation Xrotation
						End Site
						{
							OFFSET 0.00000 -0.00000 1.07476
						}
					}
				}
			}
		}
	}
	JOINT RHipJoint
	{
		OFFSET 0 0 0
		CHANNELS 3 Zrotation Yrotation Xrotation
		JOINT RightUpLeg
		{
			OFFSET -1.55811 -1.77917 0.70989
			CHANNELS 3 Zrotation Yrotation Xrotation
			JOINT RightLeg
			{
				OFFSET -2.33243 -6.40830 0.00000
				CHANNELS 3 Zrotation Yrotation Xrotation
				JOINT RightFoot
				{
					OFFSET -2.78798 -7.65993 0.00000
					CHANNELS 3 Zrotation Yrotation Xrotation
					JOINT RightToeBase
					{
						OFFSET -0.22707 -0.62388 2.04059
						CHANNELS 3 Zrotation Yrotation Xrotation
						End Site
						{
							OFFSET -0.00000 -0.00000 1.07030
						}
					}
				}
			}
		}
	}
	JOINT LowerBack
	{
		OFFSET 0 0 0
		CHANNELS 3 Zrotation Yrotation Xrotation
		JOINT Spine
		{
			OFFSET 0.02203 1.91565 0.07161
			CHANNELS 3 Zrotation Yrotation Xrotation
			JOINT Spine1
			{
				OFFSET 0.01740 1.90525 0.11636
				CHANNELS 3 Zrotation Yrotation Xrotation
				JOINT Neck
				{
					OFFSET 0 0 0
					CHANNELS 3 Zrotation Yrotation Xrotation
					JOINT Neck1
					{
						OFFSET -0.10841 1.83566 0.05067
						CHANNELS 3 Zrotation Yrotation Xrotation
						JOINT Head
						{
							OFFSET 0.06601 1.74760 -0.50505
							CHANNELS 3 Zrotation Yrotation Xrotation
							End Site
							{
								OFFSET 0.03102 1.85215 -0.17697
							}
						}
					}
				}
				JOINT LeftShoulder
				{
					OFFSET 0 0 0
					CHANNELS 3 Zrotation Yrotation Xrotation
					JOINT LeftArm
					{
						OFFSET 2.87059 1.35470 0.16111
						CHANNELS 3 Zrotation Yrotation Xrotation
						JOINT LeftForeArm
						{
							OFFSET 5.43592 -0.00000 0.00000
							CHANNELS 3 Zrotation Yrotation Xrotation
							JOINT LeftHand
							{
								OFFSET 3.25460 -0.00000 0.00000
								CHANNELS 3 Zrotation Yrotation Xrotation
								JOINT LeftFingerBase
								{
									OFFSET 0 0 0
									CHANNELS 3 Zrotation Yrotation Xrotation
									JOINT LeftHandIndex1
									{
										OFFSET 0.49824 -0.00000 0.00000
										CHANNELS 3 Zrotation Yrotation Xrotation
										End Site
										{
											OFFSET 0.40170 -0.00000 0.00000
										}
									}
								}
								JOINT LThumb
								{
									OFFSET 0 0 0
									CHANNELS 3 Zrotation Yrotation Xrotation
									End Site
									{
										OFFSET 0.40783 -0.00000 0.40783
									}
								}
							}
						}
					}
				}
				JOINT RightShoulder
				{
					OFFSET 0 0 0
					CHANNELS 3 Zrotation Yrotation Xrotation
					JOINT RightArm
					{
						OFFSET -2.86643 1.23488 0.45957
						CHANNELS 3 Zrotation Yrotation Xrotation
						JOINT RightForeArm
						{
							OFFSET -5.33830 -0.00000 0.00000
							CHANNELS 3 Zrotation Yrotation Xrotation
							JOINT RightHand
							{
								OFFSET -3.23148 -0.00000 0.00000
								CHANNELS 3 Zrotation Yrotation Xrotation
								JOINT RightFingerBase
								{
									OFFSET 0 0 0
									CHANNELS 3 Zrotation Yrotation Xrotation
									JOINT RightHandIndex1
									{
										OFFSET -0.46364 -0.00000 0.00000
										CHANNELS 3 Zrotation Yrotation Xrotation
										End Site
										{
											OFFSET -0.37380 -0.00000 0.00000
										}
									}
								}
								JOINT RThumb
								{
									OFFSET 0 0 0
									CHANNELS 3 Zrotation Yrotation Xrotation
									End Site
									{
										OFFSET -0.37951 -0.00000 0.37951
									}
								}
							}
						}
					}
				}
			}
		}
	}
}
MOTION
Frames: 8
Frame Time: 0.25
0.00 0.00 0.00 0 0 0 0 0 0 -21 0 0 0 0 0 0 0 0 0 0 0 0 0 0 21 0 0 0 0 0 0 0 0 0 0 0 0 0 0 0 0 0 0 0 0 0 0 -16 0 0 21 0 0 11 0 0 0 -8 0 0 0 0 0 0 0 0 0 0 0 0 0 0 0 0 0 0 0 0 8 0 0 0 0 0 0 0 0 0 0 0 0 0 0 0 0 0
0.00 0.00 0.00 -2.2118 -0.5475 12.8932 0.0000 0.0000 0.0000 -27.4660 -4.0455 -19.4656 1.5811 7.9329 22.5104 0.8077 2.7394 -18.1812 0.5251 4.6439 12.8956 0.0000 0.0000 0.0000 -0.8620 9.0104 -10.3842 -2.9106 -10.5489 30.7732 1.1820 -24.0539 7.2178 -0.6335 5.0925 -14.1725 13.0341 -0.0471 -4.4076 1.0602 -0.1485 -7.3398 -6.1640 -0.7437 -5.4029 1.6703 6.5787 -10.0988 3.6351 8.1509 37.1126 2.3965 4.2663 14.3098 0.0000 -0.0000 0.0000 35.1373 -12.4343 -35.7524 27.4062 -38.5639 -9.7513 -0.0000 0.0000 -41.4383 30.4310 -20.4270 -11.5862 -7.1250 0.0000 -0.0000 1.2179 6.6229 -1.0695 0.0000 -0.0000 0.0000 -7.7865 2.1040 -22.7305 -134.5440 50.9899 -97.4075 0.0000 -0.0000 -63.9430 -3.5303 -44.0277 2.4552 7.1250 -0.0000 -0.0000 48.4144 -68.1744 -29.4634
0.00 0.00 0.00 -2.2327 -1.4525 11.6293 0.0000 0.0000 0.0000 -26.9933 -5.8913 -22.2805 2.5113 9.8583 28.5192 0.9137 4.6829 -20.3361 0.4112 4.1163 11.4040 0.0000 0.0000 0.0000 1.0913 13.3595 -21.1008 -6.4555 -14.8557 46.7836 0.9905 -19.7173 2.8487 -0.5138 4.5945 -12.7556 9.3213 -1.4940 -2.4262 1.1127 -1.9182 -5.7374 -4.0056 -1.3524 -4.9284 -0.7949 3.3329 -10.1171 0.8326 5.0023 43.5877 1.3822 1.9849 17.8295 0.0000 -0.0000 0.0000 27.2567 -15.5254 -34.7271 51.3316 -53.5186 -27.2412 -0.0000 0.0000 -49.5342 35.3887 -24.6895 -16.5267 -7.1250 0.0000 -0.0000 3.5371 0.6099 -3.5060 0.0000 -0.0000 0.0000 5.0996 3.4745 -18.5088 -134.3201 51.0972 -97.2334 0.0000 -0.0000 -63.4116 -3.1392 -43.0103 2.1425 7.1250 -0.0000 -0.0000 46.8822 -67.3828 -27.5846
0.00 0.00 0.00 -1.7231 -2.3989 10.9252 0.0000 0.0000 0.0000 -27.2052 -7.4203 -23.6355 3.0926 10.8435 31.7540 0.8813 7.0934 -21.6729 0.3664 3.8882 10.7623 0.0000 0.0000 0.0000 5.1158 18.9181 -35.2466 -11.1323 -17.9992 63.2106 0.3392 -12.4294 2.9416 -1.2597 7.1148 -20.0560 7.7713 -1.8701 -1.3815 0.7301 -2.4430 -3.6620 -3.5465 -1.4404 -3.3249 -1.0174 2.4252 -10.8394 -0.4034 4.2120 46.2888 0.7536 1.3546 19.8664 0.0000 -0.0000 0.0000 19.3821 -20.6653 -31.6423 71.6495 -58.6886 -44.1780 -0.0000 0.0000 -54.2675 31.4954 -24.4485 -14.2290 -7.1250 0.0000 -0.0000 1.2520 1.9195 -1.2097 0.0000 -0.0000 0.0000 16.9949 6.1406 -10.9022 -133.5908 51.4405 -96.6644 0.0000 -0.0000 -61.3574 -4.4135 -42.7838 3.0010 7.1250 -0.0000 -0.0000 45.2688 -67.6246 -26.7138
0.00 0.00 0.00 -0.8039 -1.2713 10.8524 0.0000 0.0000 0.0000 -28.2208 -5.1153 -26.5639 3.6469 11.6751 34.5921 1.1855 2.3538 -21.5395 0.3490 3.7960 10.5034 0.0000 0.0000 0.0000 8.1341 18.8935 -44.5928 -12.8051 -18.7106 68.5189 0.0409 -5.9030 2.8430 -1.1366 6.7705 -19.0373 6.6792 -2.6028 0.8048 0.4724 -3.3213 -2.0411 -3.1260 -1.7967 -2.9173 -2.3423 1.4076 -10.3759 -0.7008 3.1003 47.5724 0.6321 0.6007 20.6557 0.0000 -0.0000 0.0000 6.3464 -29.5689 -24.0792 91.0553 -59.9958 -60.9139 -0.0000 0.0000 -57.9514 24.4009 -23.7688 -10.3614 -7.1250 0.0000 -0.0000 -2.9775 4.2015 2.7552 0.0000 -0.0000 0.0000 31.8261 7.1314 4.3169 -131.3121 52.4524 -94.8700 0.0000 -0.0000 -56.0312 3.6919 -40.1323 -2.3816 7.1250 -0.0000 -0.0000 48.5765 -63.4531 -24.5580
0.00 0.00 0.00 -0.5351 0.7814 12.1732 0.0000 0.0000 0.0000 -26.3583 -10.6328 -30.3341 4.8735 13.2399 40.2731 1.1620 5.0359 -22.7579 0.2101 2.9512 8.1429 0.0000 0.0000 0.0000 9.8779 22.6615 -54.3453 -15.2266 -19.4447 75.9183 -0.3643 -10.3394 12.1033 -1.0566 6.5359 -18.3475 5.5402 -2.3909 4.6327 -1.7522 -2.9451 0.6509 -4.7249 -1.5261 -2.2978 0.4807 4.4521 -11.2379 -0.6693 7.5261 49.5083 1.0986 2.7407 22.8875 -0.0000 -0.0000 0.0000 -42.9872 -39.7840 11.3312 95.3712 -59.8907 -64.6499 -0.0000 0.0000 -53.9825 23.2330 -22.6184 -9.3749 -7.1250 0.0000 -0.0000 -3.5734 5.6303 3.2120 -0.0000 -0.0000 0.0000 61.3744 3.6595 35.0391 -123.4698 55.3121 -88.5294 0.0000 -0.0000 -52.5733 0.9390 -38.9916 -0.5909 7.1250 -0.0000 -0.0000 44.3921 -63.4053 -21.9448
0.00 0.00 0.00 1.2065 1.2844 13.1599 0.0000 0.0000 0.0000 -27.0114 -12.4296 -32.5919 5.8062 14.2378 44.1987 1.4173 4.6969 -24.6137 0.1939 2.8360 7.8224 0.0000 0.0000 0.0000 7.0673 23.3319 -56.6152 -16.1562 -19.6420 78.6967 -0.4167 -8.1914 12.0337 -1.5692 7.9043 -22.4239 5.0045 -0.9484 4.2495 -3.2222 -1.0978 1.6127 -6.1103 -0.5357 -0.8749 1.2760 5.4518 -9.0385 1.8427 8.1392 52.7023 2.5924 3.3590 25.1121 0.0000 0.0000 0.0000 -68.1149 -28.0191 31.0981 99.5396 -59.6533 -68.2519 -0.0000 0.0000 -60.2776 23.4542 -20.7672 -8.7456 -7.1250 0.0000 -0.0000 -3.2472 7.5512 2.7970 0.0000 0.0000 0.0000 76.4549 -4.4932 48.2275 -114.0136 57.7048 -80.6362 0.0000 -0.0000 -52.8263 0.9168 -37.8942 -0.5631 7.1250 -0.0000 -0.0000 42.8972 -62.6131 -20.2734
0.00 0.00 0.00 3.1366 1.2614 13.3561 0.0000 0.0000 0.0000 -28.0077 -17.2090 -32.2680 6.3007 14.7135 46.1767 1.2336 9.7231 -26.5624 0.3894 4.0072 11.0970 0.0000 0.0000 0.0000 5.4814 23.4094 -56.7278 -16.5111 -19.7056 79.7510 -0.4124 -7.2701 11.7673 -1.4780 7.6817 -21.7513 5.0972 -0.0391 3.4883 -2.9600 0.0874 2.3828 -5.9429 0.1239 0.5180 0.7394 6.8401 -5.8384 2.3080 10.6684 53.9572 3.3749 4.3397 24.8849 -0.0000 0.0000 0.0000 -77.5370 -11.1155 45.5380 103.0546 -59.3462 -71.2808 -0.0000 0.0000 -75.1989 24.0759 -18.9783 -8.2677 -7.1250 0.0000 -0.0000 -2.6799 9.3579 2.2110 -0.0000 0.0000 0.0000 84.8175 -9.4578 55.0465 -98.3744 59.7333 -67.2460 0.0000 -0.0000 -53.9686 -1.9068 -32.2813 1.0187 7.1250 -0.0000 -0.0000 33.9055 -58.9019 -12.4109
